<?xml version="1.0" encoding="UTF-8"?><svg xmlns="http://www.w3.org/2000/svg" xmlns:xlink="http://www.w3.org/1999/xlink" width="375pt" zoomAndPan="magnify" viewBox="0 0 375 374.999991" height="374.999991pt" preserveAspectRatio="xMidYMid meet" version="1.2"><defs><g/></defs><g xml:id="surface1" id="surface1"><rect x="0" width="375" y="0" height="374.999991" style="fill:rgb(100%,100%,100%);fill-opacity:1;stroke:none;"/><rect x="0" width="375" y="0" height="374.999991" style="fill:rgb(100%,100%,100%);fill-opacity:1;stroke:none;"/><rect x="0" width="375" y="0" height="374.999991" style="fill:rgb(100%,100%,100%);fill-opacity:1;stroke:none;"/><g style="fill:rgb(86.669922%,0%,68.238831%);fill-opacity:1;"><g transform="translate(38.900568, 149.173959)"><path style="stroke:none;" d="M 5.398438 -39.546875 C 6.90625 -39.671875 19.207031 -39.984375 26.363281 -40.300781 C 26.425781 -25.925781 26.679688 -14.25 27.429688 -4.769531 L 29.566406 -1.882812 L 44.945312 -0.566406 C 44.945312 -0.566406 45.511719 -19.585938 46.011719 -41.304688 C 58.378906 -41.933594 63.902344 -42.558594 70.117188 -42.9375 C 71.371094 -50.910156 69.488281 -86.941406 69.050781 -92.777344 C 58.128906 -94.03125 15.753906 -97.359375 4.832031 -95.980469 C 4.832031 -95.980469 0.753906 -60.828125 5.398438 -39.546875 Z M 5.398438 -39.546875 "/></g></g><g style="fill:rgb(86.669922%,0%,68.238831%);fill-opacity:1;"><g transform="translate(112.465077, 149.173959)"><path style="stroke:none;" d="M 10.609375 -92.777344 C 7.660156 -63.210938 4.960938 -36.597656 3.390625 -4.457031 L 5.523438 -2.070312 L 35.71875 -0.566406 L 36.660156 -19.898438 L 48.019531 -19.144531 C 50.40625 -2.636719 49.902344 -5.523438 51.035156 -1.445312 C 56.242188 -1.253906 64.46875 -1.570312 68.988281 -1.570312 C 65.972656 -33.082031 61.453125 -61.515625 57.8125 -92.902344 C 51.722656 -93.46875 26.238281 -96.605469 10.609375 -92.777344 Z M 33.082031 -35.96875 L 32.765625 -54.359375 C 32.765625 -54.359375 32.328125 -56.308594 47.332031 -55.238281 L 48.585938 -35.089844 Z M 33.082031 -35.96875 "/></g></g><g style="fill:rgb(86.669922%,0%,68.238831%);fill-opacity:1;"><g transform="translate(185.088061, 149.173959)"><path style="stroke:none;" d="M 7.972656 -94.722656 C 7.972656 -94.722656 3.203125 -60.449219 7.53125 -26.550781 C 8.914062 -15.441406 11.363281 -4.332031 15.191406 5.460938 C 15.191406 5.460938 50.910156 2.511719 66.539062 0.628906 L 66.226562 -22.785156 C 54.171875 -22.847656 52.414062 -22.097656 41.179688 -22.097656 C 39.984375 -22.097656 28.121094 -22.410156 27.179688 -23.851562 C 26.679688 -24.921875 24.667969 -32.765625 24.667969 -32.765625 C 24.667969 -32.765625 24.105469 -36.722656 26.550781 -40.175781 C 28.6875 -43.25 68.046875 -42.183594 71.625 -42.9375 C 70.933594 -41.429688 73.003906 -53.542969 73.003906 -53.542969 C 73.003906 -59.195312 72.628906 -85.683594 72.1875 -91.523438 C 61.265625 -92.777344 18.894531 -96.105469 7.972656 -94.722656 Z M 7.972656 -94.722656 "/></g></g><g style="fill:rgb(86.669922%,0%,68.238831%);fill-opacity:1;"><g transform="translate(264.301722, 149.173959)"><path style="stroke:none;" d="M 47.644531 -50.21875 C 47.140625 -45.257812 46.765625 -28.058594 44.003906 -27.871094 C 44.003906 -27.871094 41.429688 -26.867188 41.429688 -26.992188 C 41.429688 -27.179688 28.246094 -26.050781 26.929688 -27.179688 L 25.234375 -29.441406 L 24.105469 -35.90625 C 24.105469 -35.90625 22.785156 -51.035156 23.980469 -52.855469 C 23.980469 -52.855469 26.550781 -55.363281 39.859375 -55.363281 C 45.445312 -55.363281 48.082031 -55.175781 47.644531 -50.21875 Z M 70.492188 -91.523438 C 35.90625 -98.867188 12.617188 -91.523438 12.617188 -91.523438 L 8.410156 -87.253906 C 2.824219 -50.59375 13.121094 -8.789062 13.121094 -8.789062 L 14.3125 -4.457031 C 28.5625 9.605469 58.816406 0.753906 58.816406 0.941406 C 58.816406 1.128906 64.214844 -4.269531 64.214844 -4.269531 C 78.96875 -37.285156 72.941406 -88.382812 72.941406 -88.382812 Z M 70.492188 -91.523438 "/></g></g><path style="fill:none;stroke-width:2.037154;stroke-linecap:butt;stroke-linejoin:miter;stroke:rgb(100%,90.979004%,39.608765%);stroke-opacity:1;stroke-miterlimit:4;" d="M 31.823176 54.667811 C 33.017744 54.568779 42.766166 54.3212 48.432629 54.073621 C 48.48524 65.462253 48.683303 74.712422 49.280587 82.220253 L 50.970313 84.507264 L 63.154292 85.553285 C 63.154292 85.553285 63.603029 70.485011 63.999156 53.275179 C 73.797093 52.780021 78.173051 52.281769 83.096777 51.984674 C 84.090188 45.668316 82.598524 17.122463 82.251914 12.495831 C 73.59903 11.50242 40.030418 8.865705 31.377534 9.961241 C 31.377534 9.961241 28.143534 37.810779 31.823176 54.667811 Z M 94.231641 12.495831 C 91.895114 35.919895 89.756651 57.007432 88.512567 82.467832 L 90.205388 84.358717 L 114.124609 85.553285 L 114.870441 70.234337 L 123.873031 70.831622 C 125.763915 83.90998 125.364694 81.622969 126.259073 84.856969 C 130.387452 85.005517 136.901873 84.757938 140.482484 84.757938 C 138.096441 59.792695 134.515831 37.26301 131.631536 12.396799 C 126.806841 11.951157 106.616778 9.462989 94.231641 12.495831 Z M 112.035662 57.50259 L 111.788083 42.932568 C 111.788083 42.932568 111.441472 41.391389 123.325262 42.236253 L 124.321767 58.198906 Z M 149.680042 10.954652 C 149.680042 10.954652 145.901368 38.107874 149.333431 64.964 C 150.425873 73.765432 152.366273 82.569959 155.399115 90.325369 C 155.399115 90.325369 183.69739 87.988843 196.079432 86.49718 L 195.831853 67.947327 C 186.281495 67.897811 184.888863 68.495095 175.9884 68.495095 C 175.044505 68.495095 165.642695 68.244422 164.896863 67.102464 C 164.500737 66.257601 162.910042 60.040274 162.910042 60.040274 C 162.910042 60.040274 162.461305 56.9084 164.401705 54.172653 C 166.091431 51.734 197.274001 52.581958 200.10878 51.984674 C 199.561011 53.176148 201.201222 43.579368 201.201222 43.579368 C 201.201222 39.104379 200.904127 18.115873 200.554422 13.492336 C 191.901537 12.495831 158.332926 9.86221 149.680042 10.954652 Z M 243.868359 46.216084 C 243.469138 50.143305 243.172044 63.769432 240.984065 63.917979 C 240.984065 63.917979 238.944633 64.716422 238.944633 64.614295 C 238.944633 64.465748 228.499896 65.360127 227.45697 64.465748 L 226.113854 62.67699 L 225.219475 57.552106 C 225.219475 57.552106 224.173454 45.569284 225.120443 44.127137 C 225.120443 44.127137 227.15678 42.137221 237.700549 42.137221 C 242.126023 42.137221 244.21497 42.285768 243.868359 46.216084 Z M 261.969476 13.492336 C 234.568675 7.674231 216.117854 13.492336 216.117854 13.492336 L 212.784822 16.871789 C 208.359348 45.915895 216.51398 79.038864 216.51398 79.038864 L 217.460969 82.467832 C 228.75057 93.608885 252.719307 86.596211 252.719307 86.744759 C 252.719307 86.896401 256.996233 82.619475 256.996233 82.619475 C 268.685055 56.459663 263.909876 15.97741 263.909876 15.97741 Z M 261.969476 13.492336 " transform="matrix(1.262224,0,0,1.262224,0.0000045,37.836842)"/><g style="fill:rgb(86.669922%,0%,68.238831%);fill-opacity:1;"><g transform="translate(55.684198, 276.658544)"><path style="stroke:none;" d="M 7.972656 -94.722656 C 7.972656 -94.722656 3.203125 -60.449219 7.53125 -26.550781 C 8.914062 -15.441406 11.363281 -4.332031 15.191406 5.460938 C 15.191406 5.460938 50.910156 2.511719 66.539062 0.628906 L 66.226562 -22.785156 C 54.171875 -22.847656 52.414062 -22.097656 41.179688 -22.097656 C 39.984375 -22.097656 28.121094 -22.410156 27.179688 -23.851562 C 26.679688 -24.921875 24.667969 -32.765625 24.667969 -32.765625 C 24.667969 -32.765625 24.105469 -36.722656 26.550781 -40.175781 C 28.6875 -43.25 68.046875 -42.183594 71.625 -42.9375 C 70.933594 -41.429688 73.003906 -53.542969 73.003906 -53.542969 C 73.003906 -59.195312 72.628906 -85.683594 72.1875 -91.523438 C 61.265625 -92.777344 18.894531 -96.105469 7.972656 -94.722656 Z M 7.972656 -94.722656 "/></g></g><g style="fill:rgb(86.669922%,0%,68.238831%);fill-opacity:1;"><g transform="translate(134.897859, 276.658544)"><path style="stroke:none;" d="M 10.609375 -92.777344 C 7.660156 -63.210938 4.960938 -36.597656 3.390625 -4.457031 L 5.523438 -2.070312 L 35.71875 -0.566406 L 36.660156 -19.898438 L 48.019531 -19.144531 C 50.40625 -2.636719 49.902344 -5.523438 51.035156 -1.445312 C 56.242188 -1.253906 64.46875 -1.570312 68.988281 -1.570312 C 65.972656 -33.082031 61.453125 -61.515625 57.8125 -92.902344 C 51.722656 -93.46875 26.238281 -96.605469 10.609375 -92.777344 Z M 33.082031 -35.96875 L 32.765625 -54.359375 C 32.765625 -54.359375 32.328125 -56.308594 47.332031 -55.238281 L 48.585938 -35.089844 Z M 33.082031 -35.96875 "/></g></g><g style="fill:rgb(86.669922%,0%,68.238831%);fill-opacity:1;"><g transform="translate(207.520843, 276.658544)"><path style="stroke:none;" d="M 5.398438 -39.546875 C 6.90625 -39.671875 19.207031 -39.984375 26.363281 -40.300781 C 26.425781 -25.925781 26.679688 -14.25 27.429688 -4.769531 L 29.566406 -1.882812 L 44.945312 -0.566406 C 44.945312 -0.566406 45.511719 -19.585938 46.011719 -41.304688 C 58.378906 -41.933594 63.902344 -42.558594 70.117188 -42.9375 C 71.371094 -50.910156 69.488281 -86.941406 69.050781 -92.777344 C 58.128906 -94.03125 15.753906 -97.359375 4.832031 -95.980469 C 4.832031 -95.980469 0.753906 -60.828125 5.398438 -39.546875 Z M 5.398438 -39.546875 "/></g></g><path style="fill:none;stroke-width:2.037154;stroke-linecap:butt;stroke-linejoin:miter;stroke:rgb(100%,90.979004%,39.608765%);stroke-opacity:1;stroke-miterlimit:4;" d="M 47.160692 111.954486 C 47.160692 111.954486 43.378924 139.107707 46.810987 165.963834 C 47.906524 174.765266 49.843829 183.569792 52.879766 191.325203 C 52.879766 191.325203 81.174945 188.988677 93.560083 187.497014 L 93.309409 168.947161 C 83.762146 168.897645 82.369514 169.494929 73.469051 169.494929 C 72.522061 169.494929 63.123345 169.24735 62.377514 168.102297 C 61.978292 167.257434 60.387598 161.040108 60.387598 161.040108 C 60.387598 161.040108 59.941956 157.908234 61.879261 155.172487 C 63.572082 152.733834 94.751556 153.581792 97.586335 152.984508 C 97.041662 154.175981 98.681872 144.579202 98.681872 144.579202 C 98.681872 140.104213 98.381683 119.115707 98.035072 114.49217 C 89.382188 113.495665 55.813577 110.862044 47.160692 111.954486 Z M 112.004715 113.495665 C 109.668188 136.919728 107.529725 158.007266 106.285641 183.467666 L 107.978462 185.35855 L 131.897683 186.553119 L 132.643515 171.234171 L 141.646105 171.831455 C 143.533894 184.909814 143.137768 182.622803 144.032147 185.856803 C 148.160526 186.00535 154.674947 185.757771 158.255558 185.757771 C 155.869515 160.792529 152.288905 138.262844 149.40461 113.396633 C 144.579915 112.950991 124.389852 110.462822 112.004715 113.495665 Z M 129.808736 158.502423 L 129.561157 143.932402 C 129.561157 143.932402 129.211452 142.391223 141.098336 143.236086 L 142.091747 159.198739 Z M 165.413684 155.667644 C 166.608253 155.568613 176.353579 155.321034 182.023137 155.073455 C 182.072653 166.462087 182.273811 175.712255 182.868 183.220087 L 184.560821 185.507098 L 196.744801 186.553119 C 196.744801 186.553119 197.193537 171.484845 197.589664 154.278108 C 207.387601 153.779855 211.763559 153.281602 216.687285 152.984508 C 217.680696 146.66815 216.189033 118.122296 215.842422 113.495665 C 207.189538 112.502254 173.617832 109.865538 164.964947 110.961075 C 164.964947 110.961075 161.734042 138.810613 165.413684 155.667644 Z M 165.413684 155.667644 " transform="matrix(1.262224,0,0,1.262224,0.0000045,37.836842)"/><g style="fill:rgb(86.669922%,0%,68.238831%);fill-opacity:1;"><g transform="translate(281.070002, 276.658544)"><path style="stroke:none;" d="M 7.660156 -92.273438 C 6.152344 -62.082031 12.929688 2.636719 12.929688 2.636719 L 26.992188 1.382812 L 31.761719 -2.386719 L 41.933594 -94.660156 C 24.542969 -96.480469 7.660156 -92.273438 7.660156 -92.273438 Z M 32.140625 19.835938 C 32.140625 19.269531 32.140625 18.769531 31.824219 18.265625 C 30.257812 14.6875 27.429688 14 23.539062 14 C 18.957031 14 11.300781 16.007812 11.300781 21.34375 C 11.300781 26.175781 16.632812 29.125 20.902344 29.125 C 25.609375 29.125 32.140625 24.542969 32.140625 19.835938 Z M 32.140625 19.835938 "/></g></g><path style="fill:none;stroke-width:2.037154;stroke-linecap:butt;stroke-linejoin:miter;stroke:rgb(100%,90.979004%,39.608765%);stroke-opacity:1;stroke-miterlimit:4;" d="M 225.473243 113.894886 C 224.278675 137.814107 229.651138 189.087708 229.651138 189.087708 L 240.792191 188.094298 L 244.570865 185.110971 L 252.626465 112.004001 C 238.851791 110.561854 225.473243 113.894886 225.473243 113.894886 Z M 244.867959 202.713835 C 244.867959 202.268193 244.867959 201.868972 244.62038 201.472845 C 243.376296 198.638066 241.138801 198.090298 238.056444 198.090298 C 234.426317 198.090298 228.357538 199.680993 228.357538 203.908403 C 228.357538 207.736593 232.584949 210.076214 235.967496 210.076214 C 239.696654 210.076214 244.867959 206.446088 244.867959 202.713835 Z M 244.867959 202.713835 " transform="matrix(1.262224,0,0,1.262224,0.0000045,37.836842)"/><path style=" stroke:none;fill-rule:nonzero;fill:rgb(0%,0%,0%);fill-opacity:1;" d="M 148.796875 310.164062 C 149.984375 317.320312 148.117188 325.800781 145.996094 331.640625 C 144.867188 334.738281 143.765625 337.699219 142.308594 340.527344 C 141.070312 342.933594 138.882812 344.964844 137.152344 347.191406 C 129.015625 357.660156 116.84375 366.433594 99.5625 367.925781 C 94.050781 368.40625 88.546875 368.855469 83.054688 368.371094 C 81.40625 368.226562 79.386719 367.460938 78.042969 367.632812 C 77.160156 367.742188 75.492188 369.414062 74.652344 370 C 70.894531 372.628906 67.832031 373.878906 61.976562 374.59375 C 54.449219 375.507812 48.355469 374.191406 42.667969 371.777344 C 37.5625 369.617188 32.429688 366.726562 27.925781 363.484375 C 25.730469 361.902344 23.574219 360.132812 21.441406 358.449219 C 19.320312 356.773438 17.046875 355.09375 15.25 353.265625 C 13.722656 351.707031 12.339844 349.660156 10.828125 347.785156 C 9.339844 345.933594 7.867188 344.089844 6.699219 342.007812 C 4.476562 338.03125 2.761719 332.238281 1.835938 327.046875 C 0.859375 321.566406 0.015625 315.363281 0.363281 308.679688 C 0.511719 305.839844 1.0625 302.769531 1.394531 299.792969 C 1.738281 296.726562 1.859375 293.710938 2.425781 291.054688 C 2.828125 289.171875 3.925781 286.945312 4.636719 285.277344 C 6.585938 280.695312 9.183594 276.941406 12.007812 272.6875 C 12.472656 271.984375 13.011719 270.6875 13.777344 270.464844 C 15.535156 269.957031 17.664062 271.25 18.9375 271.949219 C 21.878906 273.5625 23.621094 275.597656 25.570312 278.167969 C 30.546875 277.183594 34.800781 276.820312 40.601562 277.132812 C 42.144531 277.214844 44.042969 277.96875 45.320312 277.722656 C 46.53125 277.492188 48.179688 274.878906 49.300781 273.875 C 51.402344 271.988281 54.492188 269.542969 57.703125 269.28125 C 64.234375 268.75 64.230469 277.691406 65.070312 283.351562 C 65.480469 286.109375 65.558594 288.921875 65.957031 291.648438 C 67.6875 303.542969 70.921875 314.875 76.570312 322.898438 C 78.679688 321.683594 80.644531 318.367188 83.644531 317.417969 C 92.382812 314.65625 92.6875 326.398438 91.164062 333.714844 C 91.027344 334.363281 90.511719 335 90.425781 335.636719 C 90.019531 338.632812 90.824219 341.542969 90.425781 344.230469 C 90.015625 346.980469 88.847656 349.824219 87.917969 351.929688 C 100.332031 354.207031 112.535156 351.144531 119.757812 345.265625 C 120.964844 344.28125 122.035156 342.78125 123.148438 341.414062 C 124.527344 339.71875 126.097656 338.371094 126.980469 336.378906 C 129.105469 331.570312 129.789062 323.230469 130.222656 316.976562 C 130.566406 312.042969 130.546875 307.878906 131.699219 303.792969 C 132.582031 300.644531 132.964844 299.503906 135.234375 297.570312 C 137.089844 295.996094 139.007812 295.132812 141.71875 296.535156 C 146.039062 298.761719 147.886719 304.691406 148.796875 310.164062 Z M 83.054688 344.230469 C 84.667969 345.992188 86 349.945312 85.414062 353.265625 C 84.636719 357.652344 82.121094 361.824219 79.8125 364.667969 C 79.535156 365.011719 78.980469 365.339844 79.074219 365.855469 C 84.804688 367.425781 91.671875 366.574219 98.238281 366.148438 C 102.566406 365.871094 106.886719 365.226562 110.324219 364.078125 C 117.429688 361.699219 123.941406 358.273438 129.042969 353.707031 C 136.75 346.816406 142.84375 338.375 145.847656 327.046875 C 146.835938 323.316406 147.742188 319.027344 147.910156 314.753906 C 148.089844 310.1875 146.507812 305.398438 144.667969 301.570312 C 143.867188 299.902344 141.121094 297.167969 138.625 297.425781 C 135.726562 297.722656 133.78125 301.09375 133.023438 303.496094 C 131.867188 307.160156 131.8125 311.15625 131.550781 315.640625 C 131.371094 318.71875 131.160156 321.800781 130.8125 324.675781 C 130.101562 330.554688 129.496094 335.746094 126.242188 340.082031 C 123.40625 343.863281 120.273438 347.34375 115.925781 349.710938 C 111.535156 352.101562 106.535156 353.847656 100.449219 354.152344 C 96.070312 354.371094 92.054688 354.601562 88.214844 353.707031 C 87.722656 353.59375 85.960938 353.6875 85.707031 352.671875 C 85.53125 351.964844 86.949219 350.25 87.328125 349.265625 C 88.128906 347.195312 88.796875 344.324219 88.949219 341.5625 C 89.070312 339.417969 88.339844 337.421875 88.65625 335.339844 C 88.746094 334.75 89.355469 334.105469 89.539062 333.417969 C 90.832031 328.5625 90.785156 320.285156 87.625 319.050781 C 86.417969 318.574219 84.933594 318.839844 83.9375 319.195312 C 81.664062 320.011719 80.199219 322.34375 78.335938 323.789062 C 78.097656 324.808594 77.421875 325.800781 77.011719 326.898438 C 76.71875 327.679688 76.804688 328.9375 76.214844 329.535156 C 76.203125 329.546875 76.191406 329.558594 76.175781 329.570312 C 76.164062 329.582031 76.152344 329.59375 76.140625 329.605469 C 76.128906 329.617188 76.113281 329.625 76.101562 329.636719 C 76.074219 329.65625 76.046875 329.675781 76.015625 329.695312 C 76 329.707031 75.984375 329.714844 75.96875 329.722656 C 75.9375 329.742188 75.898438 329.757812 75.863281 329.773438 C 75.851562 329.78125 75.835938 329.785156 75.824219 329.789062 C 75.753906 329.816406 75.679688 329.835938 75.597656 329.851562 C 75.578125 329.855469 75.558594 329.859375 75.539062 329.863281 C 74.640625 328.683594 75.984375 326.785156 76.273438 325.417969 C 70.601562 318.164062 67.078125 306.675781 64.925781 295.648438 C 64.183594 291.847656 63.53125 287.851562 63.15625 283.945312 C 62.710938 279.328125 63.308594 270.269531 57.40625 271.058594 C 54.394531 271.460938 51.054688 274.609375 49.152344 276.390625 C 48.457031 277.042969 47.417969 277.707031 47.679688 278.464844 C 49.945312 279.148438 54.335938 278.488281 54.015625 281.277344 C 53.109375 281.296875 52.847656 280.59375 51.804688 280.390625 C 49.726562 279.984375 47.335938 280.015625 45.027344 279.648438 C 38.007812 278.539062 31.089844 278.90625 24.832031 280.242188 C 23.371094 278.707031 22.617188 276.546875 20.703125 275.058594 C 19.867188 274.40625 15.996094 271.996094 14.660156 272.246094 C 13.980469 272.371094 12.421875 274.730469 11.710938 275.800781 C 8.929688 279.996094 6.710938 284.027344 4.933594 288.832031 C 3.6875 292.199219 3.527344 296 3.015625 300.089844 C 2.503906 304.167969 1.726562 308.140625 1.835938 311.644531 C 2.238281 324.289062 4.289062 336.21875 10.089844 344.523438 C 12.058594 347.339844 14.484375 349.640625 16.429688 352.375 C 16.582031 352.488281 16.734375 352.601562 16.886719 352.714844 C 17.039062 352.828125 17.191406 352.945312 17.34375 353.058594 C 17.421875 353.117188 17.496094 353.175781 17.574219 353.234375 C 17.726562 353.351562 17.875 353.46875 18.027344 353.585938 C 18.253906 353.765625 18.480469 353.945312 18.707031 354.125 C 18.859375 354.246094 19.011719 354.367188 19.164062 354.488281 C 19.3125 354.609375 19.464844 354.734375 19.613281 354.855469 C 19.917969 355.101562 20.21875 355.351562 20.519531 355.597656 C 20.671875 355.722656 20.820312 355.847656 20.972656 355.972656 C 21.046875 356.035156 21.125 356.097656 21.199219 356.160156 C 21.347656 356.289062 21.5 356.414062 21.652344 356.539062 C 21.953125 356.789062 22.253906 357.042969 22.558594 357.292969 C 22.632812 357.355469 22.710938 357.421875 22.785156 357.484375 C 23.070312 357.71875 23.355469 357.957031 23.640625 358.191406 C 23.738281 358.269531 23.832031 358.347656 23.925781 358.425781 C 24.214844 358.660156 24.5 358.894531 24.789062 359.128906 C 24.886719 359.207031 24.980469 359.285156 25.078125 359.359375 C 25.308594 359.546875 25.539062 359.730469 25.773438 359.914062 C 26.007812 360.097656 26.238281 360.277344 26.472656 360.457031 C 26.550781 360.519531 26.628906 360.578125 26.710938 360.636719 C 26.867188 360.757812 27.023438 360.875 27.179688 360.996094 C 27.339844 361.113281 27.496094 361.230469 27.65625 361.34375 C 27.773438 361.433594 27.894531 361.519531 28.011719 361.605469 C 28.132812 361.691406 28.25 361.777344 28.371094 361.863281 C 28.53125 361.976562 28.691406 362.089844 28.851562 362.199219 C 29.015625 362.3125 29.175781 362.421875 29.339844 362.53125 C 29.5 362.640625 29.664062 362.75 29.828125 362.855469 C 30.316406 363.175781 30.8125 363.484375 31.316406 363.78125 C 36.914062 367.078125 42.324219 370.480469 49.300781 372.222656 C 58.945312 374.632812 69.347656 372.316406 75.539062 367.484375 C 77.519531 365.9375 79.585938 363.160156 80.992188 360.816406 C 82.4375 358.410156 84.234375 355.488281 84.527344 352.078125 C 85.015625 346.414062 80.164062 341.394531 75.242188 344.523438 C 75.042969 344.652344 74.875 344.792969 74.722656 344.941406 C 74.710938 344.957031 74.695312 344.96875 74.683594 344.984375 C 74.667969 345 74.65625 345.011719 74.644531 345.027344 C 74.617188 345.054688 74.589844 345.082031 74.566406 345.109375 C 74.515625 345.167969 74.46875 345.226562 74.421875 345.285156 C 74.398438 345.316406 74.375 345.34375 74.351562 345.375 C 74.328125 345.40625 74.308594 345.433594 74.285156 345.464844 C 74.253906 345.507812 74.21875 345.554688 74.1875 345.601562 C 74.167969 345.632812 74.148438 345.660156 74.125 345.691406 C 74.035156 345.828125 73.945312 345.96875 73.855469 346.105469 C 73.8125 346.164062 73.773438 346.226562 73.734375 346.285156 C 73.710938 346.3125 73.691406 346.34375 73.671875 346.375 C 73.660156 346.386719 73.648438 346.402344 73.640625 346.417969 C 73.617188 346.445312 73.597656 346.476562 73.574219 346.503906 C 73.523438 346.574219 73.464844 346.644531 73.40625 346.714844 C 73.382812 346.742188 73.359375 346.765625 73.335938 346.792969 C 73.324219 346.808594 73.3125 346.820312 73.300781 346.832031 C 73.273438 346.859375 73.25 346.886719 73.222656 346.910156 C 73.121094 347.011719 73.007812 347.105469 72.882812 347.191406 C 71.175781 346.335938 69.425781 346.160156 67.429688 346.15625 C 61.777344 346.136719 57.246094 350.082031 52.835938 351.632812 C 57.25 347.59375 64.285156 343.359375 72.589844 345.5625 C 74.851562 342.167969 80.457031 341.386719 83.054688 344.230469 "/><path style=" stroke:none;fill-rule:nonzero;fill:rgb(0%,0%,0%);fill-opacity:1;" d="M 50.8125 296.082031 C 50.828125 296.277344 50.835938 296.46875 50.835938 296.652344 C 50.835938 296.675781 50.835938 296.695312 50.835938 296.714844 L 50.835938 296.71875 C 50.835938 296.738281 50.835938 296.757812 50.835938 296.777344 L 50.835938 296.78125 C 50.835938 296.800781 50.835938 296.820312 50.832031 296.84375 C 50.832031 296.863281 50.832031 296.886719 50.832031 296.90625 C 50.828125 296.925781 50.828125 296.945312 50.824219 296.96875 C 50.824219 296.988281 50.824219 297.007812 50.820312 297.03125 C 50.8125 297.132812 50.796875 297.230469 50.777344 297.328125 C 50.765625 297.367188 50.757812 297.40625 50.75 297.445312 C 50.742188 297.464844 50.738281 297.484375 50.730469 297.5 C 50.71875 297.539062 50.707031 297.574219 50.695312 297.613281 C 50.675781 297.667969 50.648438 297.726562 50.621094 297.777344 C 50.605469 297.8125 50.589844 297.84375 50.570312 297.875 C 50.503906 297.988281 50.421875 298.09375 50.324219 298.191406 C 50.289062 298.222656 50.257812 298.253906 50.222656 298.28125 C 50.210938 298.292969 50.195312 298.300781 50.183594 298.3125 C 50 298.234375 49.839844 298.167969 49.695312 298.113281 C 49.675781 298.105469 49.65625 298.097656 49.636719 298.089844 C 49.457031 298.019531 49.304688 297.960938 49.152344 297.90625 C 49.117188 297.894531 49.082031 297.882812 49.046875 297.871094 C 49.011719 297.855469 48.976562 297.84375 48.941406 297.832031 C 48.890625 297.8125 48.835938 297.792969 48.78125 297.769531 C 48.6875 297.734375 48.585938 297.699219 48.476562 297.65625 C 48.433594 297.636719 48.386719 297.621094 48.339844 297.601562 C 48.316406 297.589844 48.292969 297.582031 48.269531 297.570312 C 48.25 294.582031 48.9375 291.671875 50.480469 290.019531 C 51.59375 288.820312 53.566406 287.71875 55.636719 288.242188 C 57.453125 289.773438 58.570312 292.007812 58.734375 295.203125 C 59.042969 295.53125 59.898438 295.316406 60.207031 295.648438 C 60.203125 295.996094 60.460938 296.082031 60.355469 296.535156 C 60.085938 296.855469 59.148438 296.507812 58.882812 296.832031 C 58.902344 297.300781 59.214844 297.484375 59.175781 298.015625 C 59.882812 298.066406 60.058594 298.101562 60.945312 298.164062 C 60.546875 298.640625 61.503906 298.699219 61.386719 299.347656 C 60.582031 299.652344 58.15625 299.710938 57.40625 299.054688 C 57.414062 295.144531 57.722656 290.425781 54.753906 289.871094 C 52.328125 289.414062 51.132812 291.90625 50.773438 294.164062 C 50.71875 294.507812 50.726562 294.871094 50.75 295.242188 C 50.753906 295.359375 50.765625 295.480469 50.773438 295.597656 C 50.785156 295.71875 50.792969 295.835938 50.804688 295.957031 C 50.808594 295.996094 50.8125 296.039062 50.8125 296.082031 "/><path style=" stroke:none;fill-rule:nonzero;fill:rgb(0%,0%,0%);fill-opacity:1;" d="M 57.554688 280.242188 C 57.792969 280.265625 58.3125 280.738281 58.4375 280.390625 C 58.050781 280.1875 58.371094 279.273438 57.703125 279.351562 C 57.707031 279.703125 57.449219 279.789062 57.554688 280.242188 Z M 57.40625 278.019531 C 59.140625 278.136719 59.835938 279.984375 59.46875 281.722656 C 58.277344 282.195312 57.3125 281.382812 56.375 281.132812 C 56.179688 279.945312 56.617188 278.652344 57.40625 278.019531 "/><path style=" stroke:none;fill-rule:nonzero;fill:rgb(0%,0%,0%);fill-opacity:1;" d="M 50.183594 321.417969 C 52.324219 324.539062 58.652344 322.269531 62.566406 323.046875 C 62.886719 324.542969 61.515625 324.191406 60.503906 324.234375 C 57.355469 324.363281 53.042969 324.875 50.773438 323.640625 C 47.289062 321.742188 48.011719 315.238281 50.773438 313.273438 C 52.667969 312.109375 56.316406 310.535156 59.175781 310.457031 C 60.332031 310.425781 62.179688 310.730469 62.566406 312.085938 C 61.59375 312.707031 61.050781 311.75 60.058594 311.644531 C 56.464844 311.25 50.367188 313.898438 49.59375 316.976562 C 49.277344 318.242188 49.511719 320.4375 50.183594 321.417969 "/><path style=" stroke:none;fill-rule:nonzero;fill:rgb(0%,0%,0%);fill-opacity:1;" d="M 50.820312 297.03125 C 50.8125 297.132812 50.796875 297.234375 50.777344 297.328125 C 50.796875 297.234375 50.8125 297.132812 50.820312 297.03125 "/><path style=" stroke:none;fill-rule:nonzero;fill:rgb(0%,0%,0%);fill-opacity:1;" d="M 50.777344 297.328125 C 50.769531 297.367188 50.757812 297.40625 50.746094 297.445312 C 50.757812 297.40625 50.765625 297.367188 50.777344 297.328125 "/><path style=" stroke:none;fill-rule:nonzero;fill:rgb(0%,0%,0%);fill-opacity:1;" d="M 26.453125 326.601562 C 25.746094 327.363281 23.734375 331.382812 23.210938 331.34375 C 21.722656 331.222656 23.675781 328.363281 23.945312 327.9375 C 26.070312 324.589844 31.292969 319.703125 37.066406 322.753906 C 42.1875 325.460938 39.308594 336.191406 36.625 339.042969 C 35.734375 337.597656 37.25 336.078125 37.800781 334.75 C 39.527344 330.617188 39.675781 324.085938 34.558594 323.195312 C 30.816406 322.542969 28.300781 324.609375 26.453125 326.601562 "/><path style=" stroke:none;fill-rule:nonzero;fill:rgb(0%,0%,0%);fill-opacity:1;" d="M 42.078125 291.648438 C 43.605469 293.082031 42.667969 296.730469 40.160156 296.683594 C 40.3125 298.523438 41.347656 302.425781 41.636719 304.976562 C 41.890625 307.238281 40.578125 309.289062 38.390625 307.792969 C 35.808594 306.019531 35.605469 300.402344 34.558594 296.980469 C 31.359375 297.398438 31.015625 294.160156 31.023438 292.238281 C 31.503906 292.230469 31.585938 291.820312 32.203125 291.945312 C 32.621094 293.441406 32.628906 294.835938 33.96875 295.054688 C 35.753906 295.34375 36.101562 293.570312 37.359375 292.832031 C 38.203125 293.269531 38.347656 294.40625 38.835938 295.203125 C 40.355469 295.632812 41.375 295.078125 41.636719 293.871094 C 41.800781 293.09375 40.933594 291.742188 42.078125 291.648438 Z M 37.214844 302.609375 C 37.613281 304.625 38.140625 306.515625 40.011719 307.050781 C 41.242188 305.101562 39.898438 301.089844 37.214844 302.609375 Z M 36.625 301.273438 C 37.699219 300.949219 38.597656 300.976562 39.71875 301.421875 C 39.6875 299.675781 38.910156 298.679688 39.128906 296.683594 C 38.019531 296.664062 37.875 295.671875 37.214844 295.203125 C 36.894531 295.871094 36.316406 296.277344 35.738281 296.683594 C 36.078125 298.171875 36.273438 299.796875 36.625 301.273438 "/><path style=" stroke:none;fill-rule:nonzero;fill:rgb(0%,0%,0%);fill-opacity:1;" d="M 16.429688 302.164062 C 15.328125 302.339844 13.601562 303.757812 12.746094 302.757812 C 12.738281 301.761719 13.707031 301.75 14.367188 301.421875 C 14.480469 300.8125 14.140625 300.664062 14.21875 300.089844 C 13.496094 300.203125 12.679688 300.691406 12.300781 299.941406 C 12.417969 299.070312 13.554688 299.226562 14.070312 298.757812 C 13.972656 294.019531 16.171875 291.585938 20.851562 291.648438 C 23.972656 293.480469 25.238281 296.796875 25.714844 300.980469 C 25.445312 301.351562 24.707031 301.25 24.683594 301.867188 C 22.507812 300.132812 22.851562 291.378906 17.902344 293.574219 C 15.332031 294.714844 16.296875 299.347656 16.429688 302.164062 "/><path style=" stroke:none;fill-rule:nonzero;fill:rgb(0%,0%,0%);fill-opacity:1;" d="M 15.101562 280.835938 C 15.148438 281.421875 14.761719 281.578125 14.808594 282.167969 C 15.445312 282.164062 15.941406 282.023438 16.132812 281.574219 C 15.847656 281.269531 15.675781 280.851562 15.101562 280.835938 Z M 14.21875 279.945312 C 15.078125 279.453125 15.878906 279.742188 16.457031 280.324219 C 16.46875 280.335938 16.480469 280.347656 16.496094 280.363281 C 16.519531 280.386719 16.542969 280.414062 16.566406 280.4375 C 16.589844 280.464844 16.613281 280.492188 16.636719 280.519531 C 16.738281 280.644531 16.832031 280.777344 16.917969 280.914062 C 16.933594 280.945312 16.953125 280.976562 16.972656 281.007812 C 16.980469 281.023438 16.988281 281.039062 16.996094 281.054688 C 17.003906 281.070312 17.015625 281.085938 17.023438 281.101562 C 17.105469 281.257812 17.175781 281.421875 17.230469 281.582031 C 17.257812 281.664062 17.28125 281.742188 17.300781 281.824219 C 17.304688 281.839844 17.308594 281.855469 17.3125 281.871094 C 17.285156 281.921875 17.257812 281.972656 17.230469 282.019531 C 17.199219 282.066406 17.167969 282.113281 17.136719 282.15625 C 17.113281 282.191406 17.085938 282.226562 17.058594 282.261719 C 17.03125 282.296875 17.003906 282.332031 16.972656 282.363281 C 16.183594 283.265625 14.820312 283.59375 13.480469 283.945312 C 12.941406 282.710938 13.878906 281.195312 14.21875 279.945312 "/></g></svg>